<?xml version="1.0" encoding="utf-8"?>
<!-- Generator: Adobe Illustrator 16.0.0, SVG Export Plug-In . SVG Version: 6.00 Build 0)  -->
<svg version="1.2" baseProfile="tiny" id="Capa_1" xmlns="http://www.w3.org/2000/svg" xmlns:xlink="http://www.w3.org/1999/xlink"
	 x="0px" y="0px" width="515.91px" height="172.18px" viewBox="0 0 515.91 172.18" xml:space="preserve">
<path fill="#1D1D1B" d="M514.443,147.786c0,12.486-10.121,22.612-22.605,22.612H25.573c-12.486,0-22.61-10.126-22.61-22.612V25.698
	c0-12.485,10.125-22.61,22.61-22.61h466.264c12.484,0,22.605,10.125,22.605,22.61V147.786z"/>
<g>
	<path fill="#FFFFFF" d="M92.174,24.279H48.503c-5.621,0-10.194,4.573-10.194,10.19V131.5c0,5.618,4.573,10.19,10.194,10.19h43.671
		c5.621,0,10.192-4.572,10.192-10.19V34.469C102.366,28.851,97.795,24.279,92.174,24.279 M65.279,34.592h10.118
		c0.666,0,1.201,0.534,1.201,1.203c0,0.656-0.536,1.189-1.201,1.189H65.279c-0.663,0-1.203-0.534-1.203-1.189
		C64.076,35.125,64.616,34.592,65.279,34.592 M70.328,137.176c-3.399,0-6.167-2.772-6.167-6.181c0-3.412,2.767-6.184,6.167-6.184
		c3.413,0,6.19,2.771,6.19,6.184C76.518,134.404,73.741,137.176,70.328,137.176 M97.333,122.348h-53.99V43.621h53.99V122.348z"/>
	<g>
		<g>
			<g>
				<g>
					<path fill="#FFFFFF" d="M183.408,134.031h-10.605l-5.794-18.232h-20.182l-5.544,18.232h-10.31l19.989-62.108h12.354
						L183.408,134.031z M165.24,108.145l-5.229-16.227c-0.563-1.659-1.617-5.563-3.151-11.699h-0.173
						c-0.63,2.644-1.589,6.534-2.952,11.699l-5.171,16.227H165.24z"/>
					<path fill="#FFFFFF" d="M232.242,111.09c0,7.641-2.064,13.628-6.219,18.065c-3.691,3.924-8.303,5.885-13.795,5.885
						c-5.942,0-10.207-2.109-12.789-6.367v23.514h-9.933v-48.229c0-4.785-0.142-9.686-0.386-14.715h8.753l0.547,7.087h0.177
						c3.328-5.318,8.357-7.987,15.124-7.987c5.287,0,9.686,2.071,13.229,6.258C230.476,98.774,232.242,104.279,232.242,111.09z
						 M222.099,111.444c0-4.354-0.971-7.956-2.939-10.767c-2.167-2.938-5.042-4.438-8.676-4.438c-2.451,0-4.669,0.811-6.669,2.432
						c-2,1.652-3.306,3.788-3.923,6.432c-0.302,1.234-0.454,2.237-0.454,3.042v7.454c0,3.267,0.987,6.02,2.994,8.264
						c1.99,2.219,4.585,3.345,7.775,3.345c3.747,0,6.682-1.435,8.76-4.328C221.058,119.991,222.099,116.184,222.099,111.444z"/>
					<path fill="#FFFFFF" d="M281.449,111.09c0,7.641-2.064,13.628-6.213,18.065c-3.711,3.924-8.303,5.885-13.809,5.885
						c-5.93,0-10.187-2.109-12.782-6.367v23.514h-9.953v-48.229c0-4.785-0.122-9.686-0.367-14.715h8.734l0.576,7.087h0.164
						c3.344-5.318,8.366-7.987,15.126-7.987c5.287,0,9.686,2.071,13.223,6.258C279.687,98.774,281.449,104.279,281.449,111.09z
						 M271.32,111.444c0-4.354-0.979-7.956-2.947-10.767c-2.154-2.938-5.049-4.438-8.676-4.438c-2.457,0-4.668,0.811-6.675,2.432
						c-1.99,1.652-3.306,3.788-3.923,6.432c-0.299,1.234-0.453,2.237-0.453,3.042v7.454c0,3.267,0.987,6.02,2.994,8.264
						c1.987,2.219,4.591,3.345,7.775,3.345c3.764,0,6.684-1.435,8.773-4.328C270.283,119.991,271.32,116.184,271.32,111.444z"/>
					<path fill="#FFFFFF" d="M337.666,116.609c0,5.286-1.846,9.602-5.506,12.9c-4.064,3.628-9.701,5.436-16.92,5.436
						c-6.699,0-12.053-1.3-16.098-3.872l2.309-8.29c4.359,2.566,9.15,3.865,14.361,3.865c3.762,0,6.676-0.85,8.76-2.521
						c2.084-1.685,3.125-3.942,3.125-6.805c0-2.482-0.861-4.604-2.572-6.328c-1.73-1.724-4.572-3.313-8.574-4.791
						c-10.855-4.046-16.303-9.976-16.303-17.776c0-5.106,1.91-9.287,5.756-12.535c3.84-3.254,8.924-4.888,15.25-4.888
						c5.658,0,10.348,0.99,14.109,2.945l-2.514,8.11c-3.502-1.904-7.477-2.862-11.912-2.862c-3.518,0-6.27,0.888-8.244,2.572
						c-1.66,1.551-2.482,3.435-2.482,5.641c0,2.438,0.945,4.47,2.848,6.084c1.666,1.473,4.67,3.068,9.023,4.778
						c5.365,2.136,9.277,4.67,11.813,7.57C336.406,108.73,337.666,112.319,337.666,116.609z"/>
					<path fill="#FFFFFF" d="M367.244,96.697H356.26v21.771c0,5.524,1.947,8.271,5.826,8.271c1.775,0,3.242-0.135,4.418-0.438
						l0.277,7.538c-1.969,0.746-4.541,1.106-7.736,1.106c-3.918,0-7.012-1.178-9.211-3.589c-2.225-2.393-3.332-6.419-3.332-12.065
						V96.697h-6.533v-7.454h6.533v-8.2l9.758-2.945v11.146h10.984V96.697z"/>
					<path fill="#FFFFFF" d="M413.961,111.277c0,6.895-1.961,12.521-5.885,16.959c-4.129,4.535-9.596,6.805-16.398,6.805
						c-6.586,0-11.834-2.167-15.738-6.534c-3.898-4.354-5.834-9.872-5.834-16.509c0-6.934,2-12.619,6.027-17.031
						c4.031-4.443,9.441-6.624,16.258-6.624c6.592,0,11.867,2.161,15.859,6.534C412.051,99.095,413.961,104.581,413.961,111.277z
						 M403.646,111.501c0-4.097-0.889-7.627-2.67-10.561c-2.115-3.556-5.08-5.324-8.953-5.324c-3.986,0-7.029,1.769-9.105,5.324
						c-1.801,2.934-2.689,6.516-2.689,10.734c0,4.123,0.889,7.641,2.689,10.573c2.141,3.55,5.145,5.325,9.023,5.325
						c3.801,0,6.777-1.801,8.926-5.435C402.726,119.168,403.646,115.599,403.646,111.501z"/>
					<path fill="#FFFFFF" d="M443.906,97.995c-0.984-0.187-2.031-0.257-3.125-0.257c-3.512,0-6.207,1.325-8.117,3.955
						c-1.666,2.341-2.482,5.248-2.482,8.837v23.5h-9.955v-30.703c0-5.126-0.09-9.834-0.271-14.085h8.664l0.373,8.566h0.264
						c1.041-2.933,2.701-5.306,4.984-7.074c2.205-1.614,4.611-2.393,7.189-2.393c0.92,0,1.75,0.052,2.477,0.167V97.995z"/>
					<path fill="#FFFFFF" d="M486.855,109.527c0,1.77-0.129,3.274-0.367,4.521h-29.861c0.123,4.419,1.564,7.789,4.342,10.117
						c2.508,2.097,5.756,3.139,9.764,3.139c4.424,0,8.443-0.701,12.064-2.136l1.576,6.927c-4.232,1.853-9.254,2.753-15.037,2.753
						c-6.926,0-12.381-2.026-16.348-6.116c-3.949-4.084-5.957-9.563-5.957-16.439c0-6.766,1.859-12.38,5.531-16.882
						c3.898-4.792,9.113-7.178,15.68-7.178c6.465,0,11.34,2.386,14.652,7.178C485.523,99.231,486.855,103.939,486.855,109.527z
						 M477.363,106.929c0.051-2.945-0.58-5.479-1.93-7.641c-1.736-2.753-4.373-4.154-7.93-4.154c-3.248,0-5.893,1.383-7.924,4.077
						c-1.666,2.142-2.65,4.728-2.953,7.718H477.363z"/>
				</g>
			</g>
		</g>
		<g>
			<path fill="#FFFFFF" d="M158.114,57.754h-5.451l-2.984-9.383H139.3l-2.843,9.383h-5.308l10.282-31.938h6.351L158.114,57.754z
				 M148.778,44.438l-2.701-8.34c-0.285-0.852-0.823-2.858-1.611-6.018h-0.095c-0.316,1.359-0.823,3.365-1.516,6.018l-2.654,8.34
				H148.778z"/>
			<path fill="#FFFFFF" d="M182.944,34.723l-8.72,23.031h-4.975l-8.435-23.031h5.496l3.934,12.179
				c0.663,2.021,1.216,3.965,1.658,5.829h0.143c0.378-1.674,0.931-3.618,1.658-5.829l3.886-12.179H182.944z"/>
			<path fill="#FFFFFF" d="M206.069,57.754h-4.597l-0.379-2.653h-0.142c-1.581,2.116-3.823,3.174-6.73,3.174
				c-2.179,0-3.933-0.695-5.259-2.085c-1.201-1.262-1.801-2.827-1.801-4.69c0-2.812,1.177-4.96,3.531-6.446
				c2.353-1.484,5.663-2.211,9.927-2.179v-0.428c0-3.032-1.595-4.549-4.787-4.549c-2.273,0-4.28,0.569-6.017,1.706l-1.043-3.364
				c2.148-1.328,4.787-1.99,7.914-1.99c6.034,0,9.051,3.174,9.051,9.525v8.481C205.737,54.564,205.847,56.396,206.069,57.754z
				 M200.761,49.84v-3.553c-5.656-0.095-8.483,1.454-8.483,4.644c0,1.201,0.33,2.102,0.989,2.701c0.661,0.6,1.494,0.9,2.499,0.9
				c1.13,0,2.176-0.355,3.134-1.066c0.958-0.711,1.547-1.619,1.767-2.726C200.73,50.489,200.761,50.189,200.761,49.84z"/>
			<path fill="#FFFFFF" d="M220.521,27.853c0,0.917-0.301,1.658-0.9,2.227c-0.602,0.569-1.375,0.854-2.322,0.854
				c-0.854,0-1.573-0.293-2.156-0.878c-0.585-0.584-0.878-1.319-0.878-2.203s0.301-1.611,0.9-2.18
				c0.6-0.567,1.343-0.852,2.229-0.852c0.883,0,1.625,0.285,2.227,0.852C220.22,26.242,220.521,26.969,220.521,27.853z
				 M219.951,57.754h-5.118V34.723h5.118V57.754z"/>
			<path fill="#FFFFFF" d="M234.356,57.754h-5.118V24.156h5.118V57.754z"/>
			<path fill="#FFFFFF" d="M260.941,57.754h-4.596l-0.379-2.653h-0.143c-1.58,2.116-3.823,3.174-6.73,3.174
				c-2.179,0-3.933-0.695-5.259-2.085c-1.201-1.262-1.801-2.827-1.801-4.69c0-2.812,1.177-4.96,3.531-6.446
				c2.352-1.484,5.663-2.211,9.927-2.179v-0.428c0-3.032-1.595-4.549-4.787-4.549c-2.273,0-4.28,0.569-6.017,1.706l-1.043-3.364
				c2.148-1.328,4.787-1.99,7.914-1.99c6.035,0,9.05,3.174,9.05,9.525v8.481C260.609,54.564,260.72,56.396,260.941,57.754z
				 M255.635,49.84v-3.553c-5.656-0.095-8.483,1.454-8.483,4.644c0,1.201,0.33,2.102,0.989,2.701c0.661,0.6,1.494,0.9,2.499,0.9
				c1.13,0,2.175-0.355,3.134-1.066c0.958-0.711,1.547-1.619,1.766-2.726C255.603,50.489,255.635,50.189,255.635,49.84z"/>
			<path fill="#FFFFFF" d="M291.693,45.907c0,3.886-1.074,6.981-3.221,9.287c-1.898,2.055-4.219,3.081-6.967,3.081
				c-3.285,0-5.703-1.357-7.25-4.074h-0.094l-0.283,3.553h-4.359c0.125-1.863,0.186-3.933,0.186-6.208v-27.39h5.119v13.932
				c1.525-2.56,3.988-3.838,7.387-3.838c2.795,0,5.074,1.066,6.84,3.198C290.812,39.58,291.693,42.401,291.693,45.907z
				 M286.482,46.097c0-2.243-0.506-4.076-1.516-5.498c-1.105-1.547-2.607-2.322-4.502-2.322c-1.268,0-2.402,0.41-3.416,1.232
				c-1.008,0.821-1.688,1.912-2.035,3.271c-0.125,0.537-0.189,1.074-0.189,1.611v4.028c0,1.58,0.527,2.938,1.588,4.076
				c1.059,1.137,2.377,1.706,3.957,1.706c1.928,0,3.428-0.727,4.502-2.18C285.945,50.567,286.482,48.593,286.482,46.097z"/>
			<path fill="#FFFFFF" d="M303.635,57.754h-5.117V24.156h5.117V57.754z"/>
			<path fill="#FFFFFF" d="M330.931,45.149c0,0.917-0.064,1.691-0.189,2.323h-15.355c0.064,2.273,0.809,4.012,2.229,5.211
				c1.293,1.076,2.969,1.613,5.023,1.613c2.273,0,4.342-0.363,6.207-1.09l0.807,3.554c-2.18,0.948-4.756,1.421-7.725,1.421
				c-3.572,0-6.373-1.05-8.412-3.151c-2.039-2.1-3.055-4.92-3.055-8.458c0-3.476,0.945-6.365,2.842-8.673
				c1.992-2.463,4.674-3.696,8.057-3.696c3.314,0,5.826,1.233,7.533,3.696C330.25,39.859,330.931,42.276,330.931,45.149z
				 M326.051,43.822c0.029-1.516-0.303-2.827-0.996-3.933c-0.885-1.421-2.242-2.132-4.074-2.132c-1.676,0-3.033,0.695-4.074,2.084
				c-0.855,1.106-1.361,2.435-1.52,3.981H326.051z"/>
			<path fill="#FFFFFF" d="M372.677,46.049c0,3.539-1.012,6.446-3.031,8.719c-2.117,2.339-4.93,3.507-8.436,3.507
				c-3.383,0-6.074-1.121-8.08-3.364c-2.008-2.243-3.008-5.071-3.008-8.483c0-3.569,1.033-6.493,3.104-8.766
				c2.068-2.275,4.855-3.412,8.363-3.412c3.381,0,6.098,1.121,8.15,3.364C371.697,39.794,372.677,42.607,372.677,46.049z
				 M367.369,46.168c0-2.11-0.457-3.922-1.373-5.435c-1.074-1.827-2.604-2.74-4.596-2.74c-2.055,0-3.617,0.914-4.691,2.74
				c-0.916,1.513-1.375,3.355-1.375,5.529c0,2.109,0.459,3.921,1.375,5.435c1.107,1.826,2.654,2.74,4.645,2.74
				c1.957,0,3.488-0.929,4.594-2.788C366.896,50.106,367.369,48.279,367.369,46.168z"/>
			<path fill="#FFFFFF" d="M399.498,57.754h-5.117V44.533c0-4.075-1.549-6.113-4.643-6.113c-1.518,0-2.75,0.561-3.699,1.684
				c-0.945,1.121-1.42,2.439-1.42,3.955v13.696h-5.117V41.311c0-2.021-0.064-4.218-0.189-6.587h4.502l0.234,3.555h0.145
				c0.6-1.106,1.482-2.021,2.654-2.75c1.389-0.852,2.939-1.278,4.643-1.278c2.148,0,3.934,0.694,5.354,2.085
				c1.77,1.706,2.654,4.248,2.654,7.629V57.754z"/>
			<path fill="#FFFFFF" d="M432.433,38.563h-5.639v11.183c0,2.844,0.994,4.266,2.984,4.266c0.918,0,1.676-0.079,2.273-0.238
				l0.143,3.886c-1.01,0.379-2.338,0.569-3.979,0.569c-2.021,0-3.602-0.616-4.74-1.849c-1.139-1.232-1.703-3.301-1.703-6.208V38.563
				h-3.367v-3.839h3.367v-4.217l5.021-1.517v5.734h5.639V38.563z"/>
			<path fill="#FFFFFF" d="M459.679,57.754h-5.119V44.628c0-4.139-1.547-6.208-4.645-6.208c-2.369,0-3.996,1.201-4.881,3.602
				c-0.158,0.506-0.234,1.123-0.234,1.849v13.884h-5.119V24.156h5.119v13.837h0.094c1.609-2.495,3.916-3.743,6.92-3.743
				c2.115,0,3.867,0.694,5.258,2.085c1.736,1.736,2.607,4.311,2.607,7.722V57.754z"/>
			<path fill="#FFFFFF" d="M485.933,45.149c0,0.917-0.064,1.691-0.191,2.323h-15.354c0.064,2.273,0.807,4.012,2.229,5.211
				c1.291,1.076,2.967,1.613,5.021,1.613c2.273,0,4.342-0.363,6.207-1.09l0.807,3.554c-2.18,0.948-4.756,1.421-7.725,1.421
				c-3.572,0-6.373-1.05-8.412-3.151c-2.037-2.1-3.055-4.92-3.055-8.458c0-3.476,0.945-6.365,2.844-8.673
				c1.99-2.463,4.672-3.696,8.055-3.696c3.316,0,5.826,1.233,7.535,3.696C485.25,39.859,485.933,42.276,485.933,45.149z
				 M481.051,43.822c0.029-1.516-0.303-2.827-0.996-3.933c-0.885-1.421-2.242-2.132-4.074-2.132c-1.676,0-3.033,0.695-4.074,2.084
				c-0.855,1.106-1.361,2.435-1.518,3.981H481.051z"/>
		</g>
	</g>
</g>
</svg>
